<?xml version="1.0" encoding="utf-8"?><!--Generator: Adobe Illustrator 21.0.0, SVG Export Plug-In . SVG Version: 6.00 Build 0)--><svg version="1.1" id="Layer_1" xmlns="http://www.w3.org/2000/svg" xmlns:xlink="http://www.w3.org/1999/xlink" x="0px" y="0px" viewBox="0 0 372.5 51.5" style="enable-background:new 0 0 372.5 51.5;" xml:space="preserve"><style type="text/css">.st0{fill-rule:evenodd;clip-rule:evenodd;fill:#A7A9AB;}
	.st1{fill-rule:evenodd;clip-rule:evenodd;fill:#FFFFFF;}
	.st2{fill-rule:evenodd;clip-rule:evenodd;fill:#A7A9AC;}
	.st3{fill-rule:evenodd;clip-rule:evenodd;fill:#C11533;}</style><g><g><path class="st0" d="M337.2,30.6v-3.8h0.6c1.7,0,2.6-0.8,2.6-2.4v-7.1c0-1.6-0.9-2.4-2.6-2.4h-0.6v-4h2.4c4.4,0,6.6,1.9,6.6,5.6
			v8.1c0,2.9-1.1,4.7-3.4,5.5l4,13.7h-5.5l-3.8-13.3H337.2L337.2,30.6z M362.2,19.8v-2.9c0-1.3-0.8-2-2.5-2h-0.9
			c-1.7,0-2.5,0.7-2.5,2v5.5c0,0.6,0.2,1,0.5,1.2c0.3,0.2,0.8,0.5,1.6,0.8l5.5,2.2c1.2,0.5,2.1,0.9,2.6,1.2c0.5,0.3,0.9,0.6,1.2,1.1
			c0.3,0.4,0.4,1.2,0.4,2.4v7c0,3.7-2.3,5.6-7,5.6h-3.6c-4.6,0-6.9-2-6.9-6.1v-1.7h5.8V38c0,1.3,0.9,1.9,2.6,1.9h1
			c1.5,0,2.3-0.6,2.3-1.9v-5.6c0-0.6-0.2-1-0.5-1.2c-0.3-0.2-0.8-0.5-1.6-0.8l-5.5-2.3c-1.2-0.5-2.1-0.9-2.6-1.2
			c-0.5-0.3-0.9-0.8-1.2-1.3c-0.2-0.5-0.4-1.2-0.4-2.1v-6.7c0-3.8,2.3-5.6,6.9-5.6h3.6c4.6,0,6.9,1.9,6.9,5.6v3.2H362.2z M337.2,11
			v4H334v11.9h3.2v3.8H334v13.3h-5.8V11H337.2L337.2,11z M252.5,43.9v-4h1.6c1.5,0,2.3-0.6,2.3-1.9V16.9c0-1.3-0.9-1.9-2.6-1.9h-1.3
			v-4h2.8c4.6,0,6.9,1.9,6.9,5.6v21.7c0,3.7-2.3,5.6-7,5.6H252.5L252.5,43.9z M276.6,15v29h-5.8V15h-5.6v-4h16.9v4H276.6L276.6,15z
			 M298.4,43.9V29h-7.1v15h-5.8V11h5.8v14h7.1V11h5.8v33H298.4L298.4,43.9z M309.7,43.9V11h14.4v4h-8.6v10h7.6v4h-7.6v11h8.6v4
			H309.7z M252.5,11v4h-1.4c-1.7,0-2.5,0.6-2.5,1.9V38c0,1.3,0.9,1.9,2.6,1.9h1.3v4h-2.7c-4.7,0-7-1.9-7-5.6V16.6
			c0-3.8,2.3-5.6,6.9-5.6H252.5L252.5,11z M229.2,30.6v-3.8h0.6c1.7,0,2.6-0.8,2.6-2.4v-7.1c0-1.6-0.9-2.4-2.6-2.4h-0.6v-4h2.4
			c4.4,0,6.6,1.9,6.6,5.6v8.1c0,2.9-1.1,4.7-3.4,5.5l4,13.7h-5.5l-3.8-13.3H229.2z M210.6,27c3.2,0.7,4.8,1.9,4.8,3.8V39
			c0,3.3-2.2,4.9-6.6,4.9h-2.5v-4h1c1.5,0,2.3-0.5,2.3-1.4v-7.3c0-1.5-1.1-2.3-3.3-2.3v-4c1.8-0.1,2.7-0.9,2.7-2.4v-5.1
			c0-1.6-0.9-2.4-2.6-2.4h-0.1v-4h0.8c5.2,0,7.7,2,7.7,6v6.3c0,1.9-1.4,3.1-4.2,3.5V27L210.6,27z M229.2,11v4H226v11.9h3.2v3.8H226
			v13.3h-5.8V11H229.2z M206.3,43.9h-9.1V11h9.1v4H203v9.9h2.7c0.2,0,0.4,0,0.6,0v4l-0.1,0H203v11.1h3.3V43.9z"/></g><g><path class="st1" d="M336.2,29.6v-3.8h0.6c1.7,0,2.6-0.8,2.6-2.4v-7.1c0-1.6-0.9-2.4-2.6-2.4h-0.6v-4h2.4c4.4,0,6.6,1.9,6.6,5.6
			v8.1c0,2.9-1.1,4.7-3.4,5.5l4,13.7h-5.5l-3.8-13.3H336.2L336.2,29.6z M361.2,18.8v-2.9c0-1.3-0.8-2-2.5-2h-0.9
			c-1.7,0-2.5,0.7-2.5,2v5.5c0,0.6,0.2,1,0.5,1.2c0.3,0.2,0.8,0.5,1.6,0.8l5.5,2.2c1.2,0.5,2.1,0.9,2.6,1.2c0.5,0.3,0.9,0.6,1.2,1.1
			c0.3,0.4,0.4,1.2,0.4,2.4v7c0,3.7-2.3,5.6-7,5.6h-3.6c-4.6,0-6.9-2-6.9-6.1v-1.7h5.8V37c0,1.3,0.9,1.9,2.6,1.9h1
			c1.5,0,2.3-0.6,2.3-1.9v-5.6c0-0.6-0.2-1-0.5-1.2c-0.3-0.2-0.8-0.5-1.6-0.8l-5.5-2.3c-1.2-0.5-2.1-0.9-2.6-1.2
			c-0.5-0.3-0.9-0.8-1.2-1.3c-0.2-0.5-0.4-1.2-0.4-2.1v-6.7c0-3.8,2.3-5.6,6.9-5.6h3.6c4.6,0,6.9,1.9,6.9,5.6v3.2H361.2z M336.2,10
			v4H333v11.9h3.2v3.8H333v13.3h-5.8V10H336.2L336.2,10z M251.5,42.9v-4h1.6c1.5,0,2.3-0.6,2.3-1.9V15.9c0-1.3-0.9-1.9-2.6-1.9h-1.3
			v-4h2.8c4.6,0,6.9,1.9,6.9,5.6v21.7c0,3.7-2.3,5.6-7,5.6H251.5L251.5,42.9z M275.6,14v29h-5.8V14h-5.6v-4h16.9v4H275.6L275.6,14z
			 M297.4,42.9V28h-7.1v15h-5.8V10h5.8v14h7.1V10h5.8v33H297.4L297.4,42.9z M308.7,42.9V10h14.4v4h-8.6v10h7.6v4h-7.6v11h8.6v4
			H308.7z M251.5,10v4h-1.4c-1.7,0-2.5,0.6-2.5,1.9V37c0,1.3,0.9,1.9,2.6,1.9h1.3v4h-2.7c-4.7,0-7-1.9-7-5.6V15.6
			c0-3.8,2.3-5.6,6.9-5.6H251.5L251.5,10z M228.2,29.6v-3.8h0.6c1.7,0,2.6-0.8,2.6-2.4v-7.1c0-1.6-0.9-2.4-2.6-2.4h-0.6v-4h2.4
			c4.4,0,6.6,1.9,6.6,5.6v8.1c0,2.9-1.1,4.7-3.4,5.5l4,13.7h-5.5l-3.8-13.3H228.2z M209.6,26c3.2,0.7,4.8,1.9,4.8,3.8V38
			c0,3.3-2.2,4.9-6.6,4.9h-2.5v-4h1c1.5,0,2.3-0.5,2.3-1.4v-7.3c0-1.5-1.1-2.3-3.3-2.3v-4c1.8-0.1,2.7-0.9,2.7-2.4v-5.1
			c0-1.6-0.9-2.4-2.6-2.4h-0.1v-4h0.8c5.2,0,7.7,2,7.7,6v6.3c0,1.9-1.4,3.1-4.2,3.5V26L209.6,26z M228.2,10v4H225v11.9h3.2v3.8H225
			v13.3h-5.8V10H228.2z M205.3,42.9h-9.1V10h9.1v4H202v9.9h2.7c0.2,0,0.4,0,0.6,0v4l-0.1,0H202v11.1h3.3V42.9z"/></g></g><g><path class="st2" d="M126.6,32.4c-2.7-3.2-4.1-4.9-4.1-4.9c7.1-4.9,12.3-5.8,17.8-1.9c2.2,1.6,4.3,2.5,6.1,2.8
		c1.8,0.1,4.6-1.7,6.9-4c3.2,2.9,4.7,4.4,4.7,4.4c-3,3.9-7.6,6.5-12.2,6.4c-3.9-0.3-7-2.4-9.2-4.3C133.5,28.7,130.2,29.2,126.6,32.4
		z"/><path class="st2" d="M185.9,20.6c2.7,3.2,4.1,4.9,4.1,4.9c-7.1,4.9-12.3,5.8-17.8,1.9c-2.2-1.6-4.3-2.5-6.1-2.8
		c-1.8-0.1-4.6,1.7-6.9,4c-3.2-2.9-4.7-4.4-4.7-4.4c3-3.9,7.6-6.5,12.2-6.4c3.9,0.3,7,2.4,9.2,4.3C179,24.3,182.3,23.8,185.9,20.6z"/><path class="st2" d="M189.7,10.3L190,10c-6.3,5-9.5,7.4-9.5,7.4c-2.1,2.1-10.6,0.4-11.6-4.7c-2.1-6.1-3.1-9.1-3.1-9.1
		c3.2-1,4.8-1.6,4.8-1.6c1.9,5,2.8,7.6,2.8,7.6c1.1,2.3,2.5,4.4,5.1,2.8c5.3-4.1,7.9-6.2,7.9-6.2L189.7,10.3z"/><ellipse transform="matrix(0.9976 -6.990871e-02 6.990871e-02 0.9976 -1.1004 10.2788)" class="st2" cx="146.3" cy="20.9" rx="4.8" ry="4.9"/><ellipse transform="matrix(0.9976 -6.989785e-02 6.989785e-02 0.9976 -1.8375 11.6958)" class="st2" cx="166.2" cy="32.1" rx="4.8" ry="4.9"/><path class="st3" d="M127.6,31.9c-2.7-3.2-4.1-4.9-4.1-4.9c7.1-4.9,12.3-5.8,17.8-1.9c2.2,1.6,4.3,2.5,6.1,2.8
		c1.8,0.1,4.6-1.7,6.9-4c3.2,2.9,4.7,4.4,4.7,4.4c-3,3.9-7.6,6.5-12.2,6.4c-3.9-0.3-7-2.4-9.2-4.3C134.5,28.2,131.1,28.7,127.6,31.9
		z"/><path class="st1" d="M186.8,20.1c2.7,3.2,4.1,4.9,4.1,4.9c-7.1,4.9-12.3,5.8-17.8,1.9c-2.2-1.6-4.3-2.5-6.1-2.8
		c-1.8-0.1-4.6,1.7-6.9,4c-3.2-2.9-4.7-4.4-4.7-4.4c3-3.9,7.6-6.5,12.2-6.4c3.9,0.3,7,2.4,9.2,4.3C179.9,23.8,183.3,23.3,186.8,20.1
		z"/><path class="st1" d="M190.6,9.8l0.3-0.3c-6.3,5-9.5,7.4-9.5,7.4c-2.1,2.1-10.6,0.4-11.6-4.7c-2.1-6.1-3.1-9.1-3.1-9.1
		c3.2-1,4.8-1.6,4.8-1.6c1.9,5,2.8,7.6,2.8,7.6c1.1,2.3,2.5,4.4,5.1,2.8c5.3-4.1,7.9-6.2,7.9-6.2L190.6,9.8z"/><path class="st2" d="M144,48.8l0.1,0.4c-2.7-7.5-4.1-11.3-4.1-11.3c-0.7-2.9-8.7-6-12.3-2.1c-5,4.1-7.5,6.1-7.5,6.1
		c2.1,2.6,3.2,3.9,3.2,3.9c4.3-3.3,6.4-4.9,6.4-4.9c2.2-1.4,4.4-2.4,5.8,0.3c2.3,6.3,3.4,9.5,3.4,9.5L144,48.8z"/><path class="st3" d="M144.9,48.1l0.1,0.4c-2.7-7.5-4.1-11.3-4.1-11.3c-0.7-2.9-8.7-6-12.3-2.1c-5,4.1-7.5,6.1-7.5,6.1
		c2.1,2.6,3.2,3.9,3.2,3.9c4.3-3.3,6.4-4.9,6.4-4.9c2.2-1.4,4.4-2.4,5.8,0.3c2.3,6.3,3.4,9.5,3.4,9.5L144.9,48.1z"/><ellipse transform="matrix(0.9976 -6.989704e-02 6.989704e-02 0.9976 -1.062 10.3408)" class="st3" cx="147.2" cy="20.3" rx="4.8" ry="4.9"/><ellipse transform="matrix(0.9976 -6.986285e-02 6.986285e-02 0.9976 -1.7986 11.7536)" class="st1" cx="167.1" cy="31.6" rx="4.8" ry="4.9"/></g><g><g><path class="st0" d="M59.4,32.7v-4.1h3.4V17.5c0-1.3-0.9-2-2.6-2h-0.8v-4.1h2.2c4.7,0,7.1,1.9,7.1,5.7V45h-5.9V32.7H59.4
			L59.4,32.7z M83,32.7v-4.1h9V45H80.4c-4.5,0-6.8-1.9-6.8-5.6V17.2c0-3.8,2.3-5.7,6.8-5.7h4.1c5,0,7.5,1.9,7.5,5.8V21h-5.9v-3
			c0-1.6-0.8-2.4-2.5-2.4h-1.5c-1.7,0-2.6,0.8-2.6,2.4v20.5c0,1.6,0.9,2.4,2.6,2.4h4v-8.2H83L83,32.7z M96.8,45V11.5h14.6v4.1h-8.7
			v10.2h7.7v4.1h-7.7v11.1h8.7V45H96.8z M9.5,45V11.5h5.9V45H9.5L9.5,45z M59.4,11.5v4.1h-0.8c-1.7,0-2.6,0.7-2.6,2v11.1h3.4v4.1H56
			V45h-5.9V17.2c0-3.8,2.4-5.7,7.1-5.7H59.4L59.4,11.5z M32.9,31.2l5.5-19.7h6.5V45H39l0.6-21.9l-4.4,15.9h-4.5l-4.4-15.9L26.9,45
			H21V11.5h6.5L32.9,31.2z"/></g><g><path class="st3" d="M58.4,31.7v-4.1h3.4V16.5c0-1.3-0.9-2-2.6-2h-0.8v-4.1h2.2c4.7,0,7.1,1.9,7.1,5.7V44h-5.9V31.7H58.4
			L58.4,31.7z M82,31.7v-4.1h9V44H79.4c-4.5,0-6.8-1.9-6.8-5.6V16.2c0-3.8,2.3-5.7,6.8-5.7h4.1c5,0,7.5,1.9,7.5,5.8V20h-5.9v-3
			c0-1.6-0.8-2.4-2.5-2.4h-1.5c-1.7,0-2.6,0.8-2.6,2.4v20.5c0,1.6,0.9,2.4,2.6,2.4h4v-8.2H82L82,31.7z M95.8,44V10.5h14.6v4.1h-8.7
			v10.2h7.7v4.1h-7.7v11.1h8.7V44H95.8z M8.5,44V10.5h5.9V44H8.5L8.5,44z M58.4,10.5v4.1h-0.8c-1.7,0-2.6,0.7-2.6,2v11.1h3.4v4.1H55
			V44h-5.9V16.2c0-3.8,2.4-5.7,7.1-5.7H58.4L58.4,10.5z M31.9,30.2l5.5-19.7h6.5V44H38l0.6-21.9l-4.4,15.9h-4.5l-4.4-15.9L25.9,44
			H20V10.5h6.5L31.9,30.2z"/></g></g></svg>