<svg width="110" height="34" fill="none" xmlns="http://www.w3.org/2000/svg"><path d="M42.9208 21.3147C41.9367 20.6589 41.1167 19.8391 40.4607 18.8553C39.9686 17.7076 39.6406 16.3959 39.6406 15.0842C39.6406 13.7725 39.9686 12.4608 40.6247 11.313C41.2807 10.3292 42.1007 9.34547 43.0848 8.85358C44.3968 8.19773 45.7089 7.86981 47.021 7.86981C47.677 7.86981 48.333 7.86981 49.1531 8.03377C49.8091 8.19773 50.3011 8.3617 50.9572 8.68962L50.6291 11.1491C49.4811 10.6572 48.333 10.3292 47.185 10.3292C46.0369 10.3292 44.7249 10.6572 43.9048 11.6409C43.0848 12.6247 42.7568 13.7725 42.7568 15.0842C42.5928 16.3959 43.0848 17.5436 43.7408 18.5274C44.5609 19.5111 45.7089 19.8391 47.021 19.8391C47.677 19.8391 48.333 19.8391 48.8251 19.6751V17.2157H47.021V14.9202H51.4492V20.9868C50.7931 21.3147 50.1371 21.6426 49.4811 21.8066C48.661 21.9706 47.841 22.1345 47.021 22.1345C45.5449 22.1345 44.2328 21.9706 42.9208 21.3147Z" fill="white"/><path d="M53.7455 21.3148C53.2535 20.8229 53.0894 20.1671 53.0894 19.5112V7.05008H55.5496V18.3635C55.5496 18.6914 55.5496 19.0193 55.5496 19.5112C55.5496 19.6752 55.7136 19.8391 55.8776 19.8391C56.2056 19.8391 56.3696 19.8391 56.6976 19.8391L56.5336 21.8067H55.7136C54.8935 22.1346 54.2375 21.8067 53.7455 21.3148Z" fill="white"/><path d="M59.9777 21.4786C59.1577 20.9867 58.6657 20.3308 58.1736 19.675C57.6816 18.8552 57.5176 18.0354 57.5176 17.0516C57.5176 16.2318 57.6816 15.248 58.1736 14.4282C58.5017 13.6084 59.1577 12.9525 59.9777 12.6246C61.6178 11.6408 63.7499 11.6408 65.39 12.6246C66.21 13.1165 66.702 13.7723 67.1941 14.4282C67.6861 15.248 67.8501 16.0678 67.8501 17.0516C67.8501 17.8714 67.6861 18.8552 67.1941 19.675C66.866 20.4948 66.21 21.1507 65.39 21.4786C63.7499 22.2984 61.6178 22.2984 59.9777 21.4786ZM64.5699 19.1831C65.062 18.5273 65.226 17.7074 65.226 16.8876C65.226 16.0678 65.062 15.248 64.5699 14.5922C63.7499 13.6084 62.1098 13.4444 61.1258 14.2642C60.9618 14.5922 60.9618 14.5922 60.7978 14.7561C60.3057 15.412 60.1417 16.2318 60.1417 17.0516C60.1417 17.8714 60.3057 18.6912 60.7978 19.3471C61.7818 20.3308 63.2579 20.4948 64.4059 19.511C64.4059 19.3471 64.5699 19.3471 64.5699 19.1831Z" fill="white"/><path d="M77.0344 12.6248C77.6904 13.1167 78.1825 13.7725 78.5105 14.4284C79.1665 16.068 79.1665 17.8716 78.5105 19.5112C77.8544 21.1508 76.3784 22.1346 74.5743 21.9707C73.5902 21.9707 72.6062 21.6427 71.7862 21.1508V21.8067H69.4901V7.05008H71.9502V12.6248C72.7702 11.969 73.7543 11.805 74.7383 11.805C75.3943 11.805 76.2144 12.1329 77.0344 12.6248ZM75.8864 19.1833C76.3784 18.5274 76.5424 17.7076 76.5424 16.8878C76.5424 16.068 76.3784 15.2482 75.8864 14.5924C75.5583 14.1005 74.9023 13.7725 74.2463 13.7725C73.5902 13.7725 72.7702 14.1005 72.4422 14.5924C71.9502 15.2482 71.7862 16.068 71.7862 16.8878C71.7862 17.7076 71.9502 18.5274 72.4422 19.1833C72.9342 19.6752 73.5902 20.0031 74.2463 20.0031C74.9023 20.1671 75.5583 19.8391 75.8864 19.1833Z" fill="white"/><path d="M80.8065 21.3149C80.3145 20.823 79.9865 20.0032 79.9865 19.1834C79.9865 18.3635 80.3145 17.7077 80.9705 17.2158C81.6266 16.7239 82.2826 16.232 83.1026 16.0681C83.9227 15.9041 84.7427 15.7401 85.5627 15.7401C85.5627 15.2483 85.3987 14.9203 85.0707 14.4284C84.7427 14.1005 84.2507 13.9366 83.7587 14.1005C83.2666 14.1005 82.9386 14.1005 82.4466 14.2645C81.9546 14.4284 81.4625 14.5924 80.9705 14.7564L80.8065 12.7888C81.9546 12.2969 83.1026 11.969 84.4147 11.969C85.3987 11.969 86.3828 12.2969 87.0388 12.9528C87.6948 13.7726 88.0228 14.9203 88.0228 15.9041V18.5275C88.0228 18.8554 88.0228 19.1834 88.0228 19.5113C88.0228 19.6752 88.1869 19.8392 88.1869 19.8392C88.3509 19.8392 88.5149 20.0032 88.6789 20.0032H89.0069L88.8429 21.9707H88.0228C87.5308 21.9707 87.0388 21.8067 86.7108 21.6428C86.3828 21.4788 86.0548 21.1509 85.8908 20.823C85.5627 21.1509 85.0707 21.4788 84.5787 21.6428C84.0867 21.8067 83.4306 21.9707 82.9386 21.9707C81.9546 22.1347 81.2985 21.8067 80.8065 21.3149ZM84.7427 20.0032C85.0707 19.8392 85.3987 19.6752 85.5627 19.5113V17.2158C84.9067 17.2158 84.0867 17.3798 83.4306 17.7077C82.9386 17.8717 82.6106 18.3635 82.4466 19.0194C82.4466 19.3473 82.6106 19.6752 82.7746 19.8392C83.1026 20.0032 83.4306 20.1671 83.7587 20.1671C84.0867 20.1671 84.4147 20.1671 84.7427 20.0032Z" fill="white"/><path d="M91.1391 21.3148C90.647 20.8229 90.483 20.1671 90.483 19.5112V7.05008H92.9431V18.3635C92.9431 18.6914 92.9431 19.1833 93.1072 19.5112C93.1072 19.6752 93.2712 19.8391 93.4352 19.8391C93.7632 19.8391 93.9272 19.8391 94.2552 19.8391L94.0912 21.8067H93.2712C92.2871 22.1346 91.6311 21.8067 91.1391 21.3148Z" fill="white"/><path d="M97.0434 8.19781H99.1755L102.62 14.4284L105.9 8.19781H108.032L110 21.9707H107.376L106.228 12.7888L102.784 19.1833L99.1755 12.7888L98.0275 21.9707H95.2393L97.0434 8.19781Z" fill="white"/><path d="M29.3712 14.7249C29.3712 6.54439 22.8078 0 14.6036 0C6.5634 0 0 6.54439 0 14.7249C0 22.0873 5.41481 28.1409 12.6345 29.2861L15.0958 32.722L15.424 33.3764L15.9163 32.722L18.5416 28.7953C24.7768 27.1592 29.3712 21.4329 29.3712 14.7249Z" fill="white"/><path d="M23.2332 19.9393C24.21 18.4623 24.6985 16.6571 24.6985 14.6878C24.6985 9.10797 20.3026 4.67697 14.767 4.67697C9.23136 4.51286 4.67264 9.10797 4.67264 14.6878C4.67264 20.2675 9.06855 24.6985 14.6041 24.6985C16.5579 24.6985 18.5116 24.0421 20.1397 23.0574L23.2332 23.7139L23.8844 23.878L23.7216 23.2215L23.2332 19.9393Z" fill="#0ACC81"/></svg>