<svg width="20" height="20" viewBox="0 0 20 20" fill="none"
                  xmlns="http://www.w3.org/2000/svg">
                  <g clip-path="url(#clip0_222_5114)">
                    <mask id="mask0_222_5114" style="mask-type: luminance" maskUnits="userSpaceOnUse" x="0" y="0"
                      width="20" height="20">
                      <path
                        d="M10.0003 18.3334C11.0949 18.3347 12.1789 18.1198 13.1901 17.7009C14.2014 17.282 15.1198 16.6675 15.8928 15.8925C16.6678 15.1195 17.2823 14.201 17.7012 13.1898C18.1201 12.1786 18.335 11.0946 18.3337 10C18.335 8.90548 18.1201 7.82146 17.7012 6.81023C17.2823 5.79901 16.6678 4.88051 15.8928 4.10753C15.1198 3.33259 14.2014 2.71803 13.1901 2.29916C12.1789 1.88028 11.0949 1.66534 10.0003 1.66669C8.90579 1.66534 7.82176 1.88028 6.81054 2.29916C5.79931 2.71803 4.88082 3.33259 4.10783 4.10753C3.3329 4.88051 2.71834 5.79901 2.29946 6.81023C1.88059 7.82146 1.66565 8.90548 1.667 10C1.66565 11.0946 1.88059 12.1786 2.29946 13.1898C2.71834 14.201 3.3329 15.1195 4.10783 15.8925C4.88082 16.6675 5.79931 17.282 6.81054 17.7009C7.82176 18.1198 8.90579 18.3347 10.0003 18.3334Z"
                        fill="white" stroke="white" stroke-width="2" stroke-linejoin="round" />
                      <path d="M6.66699 10L9.16699 12.5L14.167 7.5" stroke="black" stroke-width="2"
                        stroke-linecap="round" stroke-linejoin="round" />
                    </mask>
                    <g mask="url(#mask0_222_5114)">
                      <path d="M0 0H20V20H0V0Z" fill="#35BE3A" />
                    </g>
                  </g>
                  <defs>
                    <clipPath id="clip0_222_5114">
                      <rect width="20" height="20" fill="white" />
                    </clipPath>
                  </defs>
                </svg>